<svg width="524" height="379" viewBox="0 0 524 379" fill="none" xmlns="http://www.w3.org/2000/svg">
<path d="M241.498 69.5H52.5V10C52.5 4.75329 56.7533 0.5 62 0.5H172C210.217 0.5 241.229 31.3464 241.498 69.5Z" fill="#255578" stroke="black"/>
<path d="M14 61.5H510C517.456 61.5 523.5 67.5442 523.5 75V337C523.5 338.933 521.933 340.5 520 340.5H3.99999C2.06699 340.5 0.5 338.933 0.5 337V75C0.5 67.5442 6.54416 61.5 14 61.5Z" fill="#255578" stroke="black"/>
<path d="M407.475 336.475H467.525V360C467.525 370.231 459.231 378.525 449 378.525H426C415.769 378.525 407.475 370.231 407.475 360V336.475Z" fill="#255578" stroke="black" stroke-width="0.95"/>
<path d="M54.475 336.475H114.525V360C114.525 370.231 106.231 378.525 96 378.525H73C62.7689 378.525 54.475 370.231 54.475 360V336.475Z" fill="#255578" stroke="black" stroke-width="0.95"/>
<path d="M83 24H180C197.121 24 211 37.8792 211 55V55H83V24Z" fill="white"/>
<rect x="80" y="138" width="134" height="26" fill="white"/>
<rect x="80" y="238" width="134" height="26" fill="white"/>
<rect x="80" y="188" width="134" height="26" fill="white"/>
<circle cx="40" cy="90" r="12" fill="white"/>
<circle cx="482" cy="90" r="12" fill="white"/>
<circle cx="482" cy="312" r="12" fill="white"/>
<circle cx="40" cy="312" r="12" fill="white"/>
<path d="M469.6 200.199C469.6 189.163 455.779 178.703 434.589 172.217C439.479 150.62 437.306 133.437 427.729 127.936C425.522 126.645 422.941 126.034 420.123 126.034V133.607C421.685 133.607 422.941 133.912 423.994 134.49C428.612 137.138 430.616 147.224 429.054 160.196C428.68 163.388 428.069 166.75 427.322 170.18C420.666 168.55 413.399 167.293 405.758 166.478C401.174 160.196 396.42 154.491 391.631 149.499C402.702 139.21 413.093 133.573 420.157 133.573V126C410.818 126 398.593 132.656 386.232 144.202C373.871 132.724 361.646 126.136 352.308 126.136V133.709C359.337 133.709 369.762 139.312 380.833 149.533C376.079 154.525 371.324 160.196 366.808 166.478C359.133 167.293 351.866 168.55 345.21 170.214C344.429 166.818 343.852 163.524 343.444 160.366C341.848 147.394 343.818 137.308 348.402 134.625C349.421 134.014 350.746 133.743 352.308 133.743V126.17C349.455 126.17 346.874 126.781 344.633 128.071C335.091 133.573 332.951 150.722 337.875 172.251C316.753 178.771 303 189.197 303 200.199C303 211.236 316.821 221.695 338.011 228.181C333.121 249.778 335.294 266.961 344.871 272.463C347.078 273.753 349.659 274.364 352.511 274.364C361.85 274.364 374.075 267.708 386.436 256.163C398.797 267.641 411.022 274.228 420.36 274.228C423.213 274.228 425.794 273.617 428.035 272.327C437.577 266.826 439.717 249.677 434.793 228.147C455.847 221.661 469.6 211.202 469.6 200.199V200.199ZM425.386 177.549C424.13 181.93 422.568 186.446 420.802 190.962C419.409 188.246 417.949 185.529 416.353 182.812C414.791 180.096 413.127 177.447 411.463 174.866C416.285 175.579 420.938 176.462 425.386 177.549ZM409.833 213.715C407.184 218.299 404.468 222.646 401.649 226.687C396.589 227.128 391.462 227.366 386.3 227.366C381.172 227.366 376.045 227.128 371.019 226.721C368.2 222.68 365.45 218.367 362.801 213.816C360.22 209.368 357.877 204.851 355.737 200.301C357.843 195.751 360.22 191.2 362.767 186.752C365.416 182.167 368.132 177.821 370.951 173.779C376.011 173.338 381.138 173.1 386.3 173.1C391.428 173.1 396.555 173.338 401.581 173.746C404.4 177.787 407.15 182.099 409.799 186.65C412.38 191.098 414.723 195.615 416.863 200.165C414.723 204.716 412.38 209.266 409.833 213.715ZM420.802 209.3C422.635 213.85 424.198 218.401 425.488 222.815C421.039 223.902 416.353 224.819 411.497 225.532C413.161 222.917 414.825 220.235 416.387 217.484C417.949 214.767 419.409 212.017 420.802 209.3ZM386.368 245.534C383.21 242.274 380.052 238.64 376.927 234.667C379.984 234.803 383.108 234.905 386.266 234.905C389.458 234.905 392.616 234.837 395.706 234.667C392.65 238.64 389.492 242.274 386.368 245.534ZM361.103 225.532C356.281 224.819 351.628 223.936 347.18 222.849C348.436 218.469 349.998 213.952 351.764 209.436C353.157 212.153 354.617 214.869 356.213 217.586C357.809 220.303 359.439 222.951 361.103 225.532ZM386.198 154.865C389.356 158.125 392.514 161.758 395.639 165.731C392.582 165.596 389.458 165.494 386.3 165.494C383.108 165.494 379.95 165.562 376.86 165.731C379.916 161.758 383.074 158.125 386.198 154.865ZM361.069 174.866C359.405 177.481 357.741 180.164 356.179 182.914C354.617 185.631 353.157 188.348 351.764 191.064C349.931 186.514 348.368 181.963 347.078 177.549C351.527 176.496 356.213 175.579 361.069 174.866ZM330.337 217.382C318.315 212.254 310.539 205.531 310.539 200.199C310.539 194.868 318.315 188.11 330.337 183.016C333.257 181.76 336.449 180.639 339.743 179.586C341.679 186.242 344.226 193.17 347.384 200.267C344.259 207.33 341.747 214.224 339.845 220.846C336.483 219.793 333.291 218.639 330.337 217.382ZM348.606 265.909C343.988 263.26 341.984 253.174 343.546 240.202C343.92 237.01 344.531 233.648 345.278 230.218C351.934 231.848 359.201 233.105 366.842 233.92C371.426 240.202 376.18 245.907 380.969 250.899C369.898 261.188 359.507 266.826 352.443 266.826C350.915 266.792 349.625 266.486 348.606 265.909V265.909ZM429.156 240.032C430.752 253.004 428.782 263.09 424.198 265.773C423.179 266.384 421.854 266.656 420.292 266.656C413.263 266.656 402.838 261.053 391.767 250.831C396.521 245.839 401.276 240.168 405.792 233.886C413.467 233.071 420.734 231.814 427.39 230.15C428.171 233.58 428.782 236.874 429.156 240.032V240.032ZM442.229 217.382C439.309 218.639 436.117 219.759 432.823 220.812C430.887 214.156 428.341 207.229 425.182 200.131C428.307 193.068 430.819 186.174 432.721 179.552C436.083 180.605 439.275 181.76 442.263 183.016C454.285 188.144 462.061 194.868 462.061 200.199C462.027 205.531 454.251 212.288 442.229 217.382V217.382Z" fill="white"/>
<path d="M386.266 215.718C394.837 215.718 401.785 208.77 401.785 200.199C401.785 191.628 394.837 184.68 386.266 184.68C377.695 184.68 370.747 191.628 370.747 200.199C370.747 208.77 377.695 215.718 386.266 215.718Z" fill="white"/>
<path d="M393 0.5H472C477.247 0.5 481.5 4.75329 481.5 10V31.5H383.5V10C383.5 4.75329 387.753 0.5 393 0.5Z" fill="#255578" stroke="black"/>
<path d="M411.5 26.5H453.5V69.5H411.5V26.5Z" fill="#255578" stroke="black"/>
<rect x="53" y="61" width="187.5" height="24" fill="#255578"/>
<rect x="411" y="62" width="43" height="8" fill="#255578"/>
<rect x="404" y="332" width="68" height="8" fill="#255578"/>
<rect x="50" y="332" width="68" height="8" fill="#255578"/>
<rect x="411" y="24" width="43" height="8" fill="#255578"/>
<path d="M375.219 110.389C374.544 111.355 373.601 112.079 372.389 112.562C371.186 113.036 369.782 113.273 368.178 113.273C366.555 113.273 365.115 112.895 363.857 112.139C362.6 111.373 361.624 110.288 360.932 108.885C360.248 107.481 359.897 105.854 359.879 104.004V102.268C359.879 99.2689 360.576 96.9447 361.971 95.2949C363.374 93.6452 365.343 92.8203 367.877 92.8203C369.955 92.8203 371.628 93.3535 372.895 94.4199C374.161 95.4772 374.936 96.9811 375.219 98.9316H372.594C372.102 96.2975 370.534 94.9805 367.891 94.9805C366.132 94.9805 364.796 95.6003 363.885 96.8398C362.982 98.0703 362.527 99.8568 362.518 102.199V103.826C362.518 106.059 363.028 107.837 364.049 109.158C365.07 110.471 366.451 111.127 368.191 111.127C369.176 111.127 370.037 111.018 370.775 110.799C371.514 110.58 372.124 110.211 372.607 109.691V105.221H368V103.088H375.219V110.389ZM386.908 104.947H382.232V113H379.594V93.0938H386.184C388.426 93.0938 390.148 93.6042 391.352 94.625C392.564 95.6458 393.17 97.1315 393.17 99.082C393.17 100.322 392.833 101.402 392.158 102.322C391.493 103.243 390.563 103.931 389.369 104.387L394.045 112.836V113H391.229L386.908 104.947ZM382.232 102.801H386.266C387.569 102.801 388.604 102.464 389.369 101.789C390.144 101.115 390.531 100.212 390.531 99.082C390.531 97.8516 390.162 96.9082 389.424 96.252C388.695 95.5957 387.637 95.263 386.252 95.2539H382.232V102.801ZM411.504 106.684C411.258 108.789 410.479 110.416 409.166 111.564C407.863 112.704 406.126 113.273 403.957 113.273C401.605 113.273 399.719 112.43 398.297 110.744C396.884 109.058 396.178 106.802 396.178 103.977V102.062C396.178 100.212 396.506 98.5853 397.162 97.1816C397.827 95.778 398.766 94.7025 399.979 93.9551C401.191 93.1986 402.594 92.8203 404.189 92.8203C406.304 92.8203 407.999 93.4128 409.275 94.5977C410.551 95.7734 411.294 97.4049 411.504 99.4922H408.865C408.637 97.9062 408.141 96.7578 407.375 96.0469C406.618 95.3359 405.557 94.9805 404.189 94.9805C402.512 94.9805 401.195 95.6003 400.238 96.8398C399.29 98.0794 398.816 99.8431 398.816 102.131V104.059C398.816 106.219 399.268 107.937 400.17 109.213C401.072 110.489 402.335 111.127 403.957 111.127C405.415 111.127 406.532 110.799 407.307 110.143C408.09 109.477 408.61 108.324 408.865 106.684H411.504Z" fill="white"/>
</svg>
