<svg width="842" height="496" viewBox="0 0 842 496" fill="none" xmlns="http://www.w3.org/2000/svg">
<path d="M129.5 133C129.5 127.753 133.753 123.5 139 123.5H249C287.217 123.5 318.229 154.346 318.498 192.5H129.5V133Z" fill="#255578" stroke="black"/>
<path d="M77.5 198C77.5 190.544 83.5442 184.5 91 184.5H587C594.456 184.5 600.5 190.544 600.5 198V460C600.5 461.933 598.933 463.5 597 463.5H81C79.067 463.5 77.5 461.933 77.5 460V198Z" fill="#255578" stroke="black"/>
<path d="M484.475 459.475H544.525V483C544.525 493.231 536.231 501.525 526 501.525H503C492.769 501.525 484.475 493.231 484.475 483V459.475Z" fill="#255578" stroke="black" stroke-width="0.95"/>
<path d="M131.475 459.475H191.525V483C191.525 493.231 183.231 501.525 173 501.525H150C139.769 501.525 131.475 493.231 131.475 483V459.475Z" fill="#255578" stroke="black" stroke-width="0.95"/>
<path d="M160 147H257C274.121 147 288 160.879 288 178H160V147Z" fill="white"/>
<rect x="157" y="261" width="134" height="26" fill="white"/>
<rect x="157" y="361" width="134" height="26" fill="white"/>
<rect x="157" y="311" width="134" height="26" fill="white"/>
<circle cx="117" cy="213" r="12" fill="white"/>
<circle cx="559" cy="213" r="12" fill="white"/>
<circle cx="559" cy="435" r="12" fill="white"/>
<circle cx="117" cy="435" r="12" fill="white"/>
<path d="M546.6 323.199C546.6 312.163 532.779 301.703 511.589 295.217C516.479 273.62 514.306 256.437 504.729 250.936C502.522 249.645 499.941 249.034 497.123 249.034V256.607C498.685 256.607 499.941 256.912 500.994 257.49C505.612 260.138 507.616 270.224 506.054 283.196C505.68 286.388 505.069 289.75 504.322 293.18C497.666 291.55 490.399 290.293 482.758 289.478C478.174 283.196 473.42 277.491 468.631 272.499C479.702 262.21 490.093 256.573 497.157 256.573V249C487.818 249 475.593 255.656 463.232 267.202C450.871 255.724 438.646 249.136 429.308 249.136V256.709C436.337 256.709 446.762 262.312 457.833 272.533C453.079 277.525 448.324 283.196 443.808 289.478C436.133 290.293 428.866 291.55 422.21 293.214C421.429 289.818 420.852 286.524 420.444 283.366C418.848 270.394 420.818 260.308 425.402 257.625C426.421 257.014 427.746 256.743 429.308 256.743V249.17C426.455 249.17 423.874 249.781 421.633 251.071C412.091 256.573 409.951 273.722 414.875 295.251C393.753 301.771 380 312.197 380 323.199C380 334.236 393.821 344.695 415.011 351.181C410.121 372.778 412.294 389.961 421.871 395.463C424.078 396.753 426.659 397.364 429.511 397.364C438.85 397.364 451.075 390.708 463.436 379.163C475.797 390.641 488.022 397.228 497.36 397.228C500.213 397.228 502.794 396.617 505.035 395.327C514.577 389.826 516.717 372.677 511.793 351.147C532.847 344.661 546.6 334.202 546.6 323.199ZM502.386 300.549C501.13 304.93 499.568 309.446 497.802 313.962C496.409 311.246 494.949 308.529 493.353 305.812C491.791 303.096 490.127 300.447 488.463 297.866C493.285 298.579 497.938 299.462 502.386 300.549ZM486.833 336.715C484.184 341.299 481.468 345.646 478.649 349.687C473.589 350.128 468.462 350.366 463.3 350.366C458.172 350.366 453.045 350.128 448.019 349.721C445.2 345.68 442.45 341.367 439.801 336.816C437.22 332.368 434.877 327.851 432.737 323.301C434.843 318.751 437.22 314.2 439.767 309.752C442.416 305.167 445.132 300.821 447.951 296.779C453.011 296.338 458.138 296.1 463.3 296.1C468.428 296.1 473.555 296.338 478.581 296.746C481.4 300.787 484.15 305.099 486.799 309.65C489.38 314.098 491.723 318.615 493.863 323.165C491.723 327.716 489.38 332.266 486.833 336.715ZM497.802 332.3C499.635 336.85 501.198 341.401 502.488 345.815C498.039 346.902 493.353 347.819 488.497 348.532C490.161 345.917 491.825 343.235 493.387 340.484C494.949 337.767 496.409 335.017 497.802 332.3ZM463.368 368.534C460.21 365.274 457.052 361.64 453.927 357.667C456.984 357.803 460.108 357.905 463.266 357.905C466.458 357.905 469.616 357.837 472.706 357.667C469.65 361.64 466.492 365.274 463.368 368.534ZM438.103 348.532C433.281 347.819 428.628 346.936 424.18 345.849C425.436 341.469 426.998 336.952 428.764 332.436C430.157 335.153 431.617 337.869 433.213 340.586C434.809 343.303 436.439 345.951 438.103 348.532ZM463.198 277.865C466.356 281.125 469.514 284.758 472.639 288.731C469.582 288.596 466.458 288.494 463.3 288.494C460.108 288.494 456.95 288.562 453.86 288.731C456.916 284.758 460.074 281.125 463.198 277.865ZM438.069 297.866C436.405 300.481 434.741 303.164 433.179 305.914C431.617 308.631 430.157 311.348 428.764 314.064C426.931 309.514 425.368 304.963 424.078 300.549C428.527 299.496 433.213 298.579 438.069 297.866ZM407.337 340.382C395.315 335.254 387.539 328.531 387.539 323.199C387.539 317.868 395.315 311.11 407.337 306.016C410.257 304.76 413.449 303.639 416.743 302.586C418.679 309.242 421.226 316.17 424.384 323.267C421.259 330.33 418.747 337.224 416.845 343.846C413.483 342.793 410.291 341.639 407.337 340.382ZM425.606 388.909C420.988 386.26 418.984 376.174 420.546 363.202C420.92 360.01 421.531 356.648 422.278 353.218C428.934 354.848 436.201 356.105 443.842 356.92C448.426 363.202 453.18 368.907 457.969 373.899C446.898 384.188 436.507 389.826 429.443 389.826C427.915 389.792 426.625 389.486 425.606 388.909ZM506.156 363.032C507.752 376.004 505.782 386.09 501.198 388.773C500.179 389.384 498.854 389.656 497.292 389.656C490.263 389.656 479.838 384.053 468.767 373.831C473.521 368.839 478.276 363.168 482.792 356.886C490.467 356.071 497.734 354.814 504.39 353.15C505.171 356.58 505.782 359.874 506.156 363.032ZM519.229 340.382C516.309 341.639 513.117 342.759 509.823 343.812C507.887 337.156 505.34 330.229 502.182 323.131C505.307 316.068 507.819 309.174 509.721 302.552C513.083 303.605 516.275 304.76 519.263 306.016C531.285 311.144 539.061 317.868 539.061 323.199C539.027 328.531 531.251 335.288 519.229 340.382Z" fill="white"/>
<path d="M463.266 338.718C471.837 338.718 478.785 331.77 478.785 323.199C478.785 314.628 471.837 307.68 463.266 307.68C454.695 307.68 447.747 314.628 447.747 323.199C447.747 331.77 454.695 338.718 463.266 338.718Z" fill="white"/>
<path d="M460.5 133C460.5 127.753 464.753 123.5 470 123.5H549C554.247 123.5 558.5 127.753 558.5 133V154.5H460.5V133Z" fill="#255578" stroke="black"/>
<path d="M488.5 149.5H530.5V192.5H488.5V149.5Z" fill="#255578" stroke="black"/>
<rect x="130" y="184" width="187.5" height="24" fill="#255578"/>
<rect x="488" y="185" width="43" height="8" fill="#255578"/>
<rect x="481" y="455" width="68" height="8" fill="#255578"/>
<rect x="127" y="455" width="68" height="8" fill="#255578"/>
<rect x="488" y="147" width="43" height="8" fill="#255578"/>
<path d="M452.219 233.389C451.544 234.355 450.601 235.079 449.389 235.562C448.186 236.036 446.782 236.273 445.178 236.273C443.555 236.273 442.115 235.895 440.857 235.139C439.6 234.373 438.624 233.288 437.932 231.885C437.248 230.481 436.897 228.854 436.879 227.004V225.268C436.879 222.269 437.576 219.945 438.971 218.295C440.374 216.645 442.343 215.82 444.877 215.82C446.955 215.82 448.628 216.354 449.895 217.42C451.161 218.477 451.936 219.981 452.219 221.932H449.594C449.102 219.298 447.534 217.98 444.891 217.98C443.132 217.98 441.796 218.6 440.885 219.84C439.982 221.07 439.527 222.857 439.518 225.199V226.826C439.518 229.059 440.028 230.837 441.049 232.158C442.07 233.471 443.451 234.127 445.191 234.127C446.176 234.127 447.037 234.018 447.775 233.799C448.514 233.58 449.124 233.211 449.607 232.691V228.221H445V226.088H452.219V233.389ZM463.908 227.947H459.232V236H456.594V216.094H463.184C465.426 216.094 467.148 216.604 468.352 217.625C469.564 218.646 470.17 220.132 470.17 222.082C470.17 223.322 469.833 224.402 469.158 225.322C468.493 226.243 467.563 226.931 466.369 227.387L471.045 235.836V236H468.229L463.908 227.947ZM459.232 225.801H463.266C464.569 225.801 465.604 225.464 466.369 224.789C467.144 224.115 467.531 223.212 467.531 222.082C467.531 220.852 467.162 219.908 466.424 219.252C465.695 218.596 464.637 218.263 463.252 218.254H459.232V225.801ZM488.504 229.684C488.258 231.789 487.479 233.416 486.166 234.564C484.863 235.704 483.126 236.273 480.957 236.273C478.605 236.273 476.719 235.43 475.297 233.744C473.884 232.058 473.178 229.802 473.178 226.977V225.062C473.178 223.212 473.506 221.585 474.162 220.182C474.827 218.778 475.766 217.702 476.979 216.955C478.191 216.199 479.594 215.82 481.189 215.82C483.304 215.82 484.999 216.413 486.275 217.598C487.551 218.773 488.294 220.405 488.504 222.492H485.865C485.637 220.906 485.141 219.758 484.375 219.047C483.618 218.336 482.557 217.98 481.189 217.98C479.512 217.98 478.195 218.6 477.238 219.84C476.29 221.079 475.816 222.843 475.816 225.131V227.059C475.816 229.219 476.268 230.937 477.17 232.213C478.072 233.489 479.335 234.127 480.957 234.127C482.415 234.127 483.532 233.799 484.307 233.143C485.09 232.477 485.61 231.324 485.865 229.684H488.504Z" fill="white"/>
</svg>
